<?xml version="1.0" standalone="no"?>
<!DOCTYPE svg PUBLIC "-//W3C//DTD SVG 20010904//EN"
 "http://www.w3.org/TR/2001/REC-SVG-20010904/DTD/svg10.dtd">
<svg version="1.0" xmlns="http://www.w3.org/2000/svg"
 width="878.000000pt" height="878.000000pt" viewBox="0 0 878.000000 878.000000"
 preserveAspectRatio="xMidYMid meet">
<metadata>
Created by potrace 1.11, written by Peter Selinger 2001-2013
</metadata>
<g transform="translate(0.000000,878.000000) scale(0.100000,-0.100000)"
fill="#000000" stroke="none">
<path d="M3026 8138 c-83 -147 -637 -1096 -651 -1113 -8 -10 -15 -24 -15 -29
0 -5 -11 -26 -23 -45 -13 -20 -61 -101 -107 -181 -85 -148 -164 -283 -180
-310 -5 -8 -37 -63 -71 -123 l-61 -107 27 -53 c14 -28 36 -69 48 -89 l21 -38
70 -1 c39 0 548 0 1131 0 583 0 1068 -2 1078 -5 9 -3 17 -9 17 -13 0 -4 35
-70 78 -147 42 -76 88 -160 102 -187 17 -31 32 -47 45 -48 88 -2 2487 -1 2489
2 4 6 101 153 109 165 6 11 1 23 -52 114 -17 30 -37 66 -44 80 -6 14 -14 27
-17 30 -3 3 -11 16 -18 29 -40 71 -230 402 -242 421 -10 17 -158 274 -176 305
-6 11 -44 76 -84 145 -40 69 -81 141 -92 160 -11 19 -37 64 -58 100 -21 36
-47 82 -59 103 -11 20 -31 54 -43 75 -12 20 -34 60 -50 87 -16 28 -33 57 -38
65 -6 8 -41 69 -79 135 -106 186 -131 229 -141 245 -6 8 -13 21 -17 29 -3 8
-37 66 -74 130 l-67 116 -1364 3 -1363 2 -29 -52z m2641 -218 c14 -25 32 -56
41 -70 9 -14 22 -34 27 -45 20 -36 167 -290 183 -315 9 -14 15 -28 14 -32 -1
-5 2 -8 8 -8 5 0 10 -4 10 -8 0 -5 68 -125 151 -268 84 -142 160 -274 170
-291 11 -18 29 -50 41 -70 12 -21 28 -49 35 -63 8 -14 23 -41 35 -60 11 -19
31 -53 43 -75 13 -22 44 -74 69 -115 25 -41 54 -92 63 -112 10 -21 21 -38 25
-38 5 0 8 -4 8 -9 0 -8 93 -172 151 -266 10 -16 22 -37 26 -45 4 -8 26 -48 50
-87 l43 -73 -28 0 c-15 -1 -511 -1 -1102 -1 -972 -1 -1075 1 -1078 15 -2 9 -8
16 -13 16 -5 0 -9 5 -9 10 0 11 -197 353 -231 402 -11 15 -19 34 -19 42 0 8
-4 16 -8 18 -5 2 -100 161 -212 353 -112 193 -214 368 -227 390 -12 22 -29 51
-36 65 -7 14 -25 44 -40 67 -15 24 -27 47 -27 53 0 5 -4 10 -10 10 -5 0 -10 4
-10 10 0 5 -36 71 -80 146 -44 75 -80 139 -80 141 0 2 -22 39 -50 83 -27 44
-50 82 -50 85 0 3 -10 22 -23 43 -13 20 -38 63 -56 95 l-33 57 1102 -2 1102
-3 25 -45z m-2370 -182 c26 -46 50 -87 52 -93 2 -5 10 -18 19 -27 8 -10 11
-18 7 -18 -4 0 -1 -8 7 -17 8 -10 29 -44 47 -76 l32 -58 -32 -52 c-18 -29 -40
-65 -49 -82 -10 -16 -46 -79 -82 -140 -36 -60 -118 -200 -183 -310 -65 -110
-125 -212 -134 -227 -34 -55 -71 -121 -71 -124 0 -2 58 -4 128 -4 124 0 129 1
140 23 6 12 22 38 34 59 20 32 60 98 108 179 8 15 42 72 75 128 33 56 67 114
75 129 8 15 18 29 21 32 3 3 8 10 10 16 9 22 83 144 89 144 9 0 110 -182 110
-198 0 -15 -62 -124 -88 -154 -8 -10 -12 -18 -8 -18 4 0 -7 -20 -24 -44 -16
-25 -30 -47 -30 -51 0 -3 -12 -24 -27 -48 -38 -59 -51 -80 -59 -97 -4 -8 -18
-32 -31 -52 -13 -21 -23 -40 -23 -43 0 -3 57 -5 128 -5 l127 0 75 126 c41 69
80 134 86 145 10 18 16 12 59 -63 26 -46 55 -96 65 -113 10 -16 46 -79 80
-140 34 -60 71 -125 82 -142 l20 -33 -896 0 c-849 0 -895 1 -889 18 4 9 22 40
40 69 18 29 33 57 33 63 0 5 5 10 10 10 6 0 10 4 10 10 0 5 18 39 40 75 22 36
40 67 40 69 0 2 19 35 42 72 75 124 258 436 258 441 0 2 5 9 10 16 19 22 90
146 90 156 0 6 3 11 8 11 4 0 12 10 18 23 6 12 48 85 94 162 45 77 93 158 106
180 13 22 38 66 56 98 18 31 36 57 39 57 4 0 29 -37 56 -82z"/>
<path d="M1352 5292 c-11 -15 -30 -47 -44 -72 -103 -183 -274 -476 -280 -478
-5 -2 -8 -8 -8 -13 0 -7 -67 -127 -100 -179 -5 -8 -22 -39 -37 -67 -15 -29
-31 -53 -35 -53 -4 0 -8 -5 -8 -11 0 -6 -16 -38 -36 -70 -19 -32 -35 -62 -36
-66 0 -4 -10 -21 -22 -38 -11 -16 -26 -39 -32 -50 -13 -26 -82 -145 -94 -165
-8 -12 -133 -228 -200 -345 -9 -16 -60 -104 -112 -195 -53 -91 -105 -181 -115
-200 -34 -60 -113 -194 -123 -210 -6 -8 -13 -22 -17 -30 -4 -8 -9 -17 -12 -20
-3 -3 -14 -20 -23 -38 l-18 -33 47 -82 c26 -45 102 -178 170 -295 68 -117 135
-234 150 -260 14 -26 48 -84 74 -130 27 -45 49 -87 49 -91 0 -5 4 -11 8 -13 4
-1 23 -30 41 -63 56 -99 73 -128 92 -160 11 -16 26 -43 34 -60 9 -16 24 -43
35 -60 10 -16 27 -46 38 -65 11 -19 112 -196 225 -392 114 -196 215 -372 226
-391 10 -19 25 -45 33 -58 7 -13 18 -31 25 -39 6 -8 24 -40 40 -70 53 -100 73
-128 96 -131 12 -2 523 -4 1136 -4 l1115 0 32 55 c18 30 36 60 41 66 30 39 30
48 2 101 -16 29 -40 71 -54 93 -14 22 -25 44 -25 50 0 5 -5 10 -11 10 -5 0 -8
4 -4 9 3 5 1 12 -4 15 -5 3 -35 52 -67 108 -31 57 -64 111 -72 121 -8 9 -12
17 -8 17 4 0 -1 12 -12 28 -11 15 -62 101 -114 192 -52 91 -109 189 -127 218
-17 29 -31 57 -31 62 0 4 -3 10 -7 12 -5 2 -16 19 -27 38 -10 19 -77 136 -149
260 -71 124 -138 239 -148 257 -10 17 -29 50 -43 72 -15 22 -26 43 -26 46 0 3
-20 39 -45 79 -25 41 -45 79 -45 85 0 6 -4 11 -10 11 -5 0 -10 4 -10 9 0 6
-16 36 -35 68 -20 33 -32 65 -29 75 3 9 54 98 114 198 61 100 110 184 110 187
0 3 -44 82 -99 177 -54 94 -108 187 -118 206 -11 19 -52 90 -92 157 -39 68
-71 127 -71 133 0 5 -4 10 -10 10 -5 0 -10 7 -10 15 0 8 -5 15 -12 15 -6 0 -8
3 -5 7 4 3 1 13 -7 22 -7 9 -28 43 -45 76 -18 32 -41 71 -52 86 -10 15 -19 30
-19 33 0 3 -22 43 -50 90 -27 47 -50 89 -50 95 0 6 -4 11 -10 11 -5 0 -10 4
-10 9 0 8 -103 190 -130 231 -6 8 -17 29 -26 45 -8 17 -25 47 -37 67 -98 166
-127 217 -127 227 0 6 -3 11 -8 11 -4 0 -18 21 -32 48 -13 26 -27 49 -30 52
-9 9 -51 84 -63 113 -6 15 -15 27 -19 27 -4 0 -8 4 -8 10 0 12 -100 183 -112
191 -5 3 -37 7 -71 8 -34 1 -79 4 -99 6 -32 3 -41 -1 -56 -23z m248 -462 c106
-183 129 -223 176 -310 10 -19 21 -37 24 -40 5 -5 13 -19 58 -99 14 -25 36
-63 49 -83 12 -21 23 -42 23 -48 0 -5 4 -10 9 -10 5 0 11 -8 14 -17 4 -10 21
-43 39 -74 92 -157 113 -195 117 -204 2 -5 12 -21 21 -35 9 -14 30 -50 47 -80
28 -52 153 -268 173 -300 22 -36 175 -305 179 -315 2 -5 7 -12 10 -15 3 -3 12
-15 19 -28 13 -24 8 -33 -220 -427 -16 -27 -32 -58 -35 -67 -3 -10 -9 -18 -14
-18 -5 0 -9 -4 -9 -9 0 -9 -90 -172 -100 -181 -3 -3 -13 -21 -24 -40 -10 -19
-26 -48 -36 -65 -9 -16 -62 -109 -117 -205 -55 -96 -171 -299 -258 -450 -87
-151 -165 -288 -173 -305 -9 -16 -18 -32 -22 -35 -4 -3 -13 -20 -21 -37 -8
-18 -17 -33 -21 -33 -5 0 -8 -6 -8 -14 0 -7 -7 -19 -15 -26 -8 -7 -15 -21 -15
-31 0 -11 -4 -19 -9 -19 -5 0 -13 -10 -17 -22 -4 -13 -9 -25 -13 -28 -3 -3
-18 -27 -33 -55 -15 -27 -30 -51 -35 -52 -8 -2 -123 188 -123 205 0 6 -3 12
-8 14 -4 2 -46 71 -93 153 -82 141 -98 170 -150 263 -12 20 -52 90 -90 154
-38 64 -69 121 -69 127 0 6 -4 11 -10 11 -5 0 -10 6 -10 14 0 7 -7 19 -15 26
-8 7 -13 16 -10 20 2 4 -5 16 -15 28 -11 12 -20 24 -20 27 0 4 -33 64 -74 133
-40 70 -83 144 -94 164 -12 20 -32 55 -46 77 -15 22 -26 43 -26 45 0 2 -27 50
-60 105 -33 56 -60 106 -60 111 0 6 -4 10 -8 10 -4 0 -13 12 -19 28 -12 28
-54 103 -63 112 -3 3 -12 19 -22 35 -19 36 -29 16 182 380 12 22 34 59 47 83
13 23 52 91 86 150 34 59 73 128 87 155 14 26 28 47 32 47 5 0 8 4 8 9 0 5 22
48 50 96 27 48 50 91 50 96 0 5 3 9 8 9 4 0 12 10 18 23 18 38 87 162 93 167
3 3 15 23 26 45 11 22 22 42 25 45 3 3 10 14 16 25 16 29 58 105 81 145 240
419 307 536 312 540 3 3 19 31 36 62 23 45 32 55 41 45 6 -6 62 -100 124 -207z
m965 -2510 c43 -74 87 -151 97 -170 11 -19 42 -72 69 -118 27 -45 49 -85 49
-88 0 -3 8 -18 19 -32 10 -15 29 -47 43 -72 14 -25 67 -117 118 -205 131 -227
131 -226 155 -270 13 -22 47 -80 75 -130 147 -252 172 -297 166 -302 -3 -3
-180 -5 -393 -4 -700 5 -1307 10 -1344 12 l-37 2 37 61 c21 34 44 76 52 94 7
17 17 32 20 32 3 0 16 23 29 50 13 28 27 50 31 50 4 0 9 10 13 23 3 12 14 32
25 44 l20 21 540 -5 c298 -2 541 -2 541 1 0 5 -118 207 -127 216 -4 4 -89 6
-610 11 l-222 2 25 46 c13 25 30 55 37 66 6 10 22 36 34 56 l22 37 296 -2
c162 -1 295 -1 295 0 0 1 -20 37 -45 78 -25 42 -45 81 -45 86 0 6 -4 10 -10
10 -5 0 -10 7 -10 15 0 26 -32 31 -190 34 -85 1 -156 4 -158 6 -3 2 89 166
145 260 7 11 15 27 19 35 4 8 10 17 13 20 6 5 39 63 83 148 17 33 25 39 34 30
6 -7 46 -74 89 -148z"/>
<path d="M7434 4907 c-5 -7 -17 -27 -24 -44 -8 -18 -18 -33 -22 -33 -5 0 -8
-4 -8 -9 0 -7 -48 -95 -110 -201 -5 -8 -37 -64 -72 -125 -35 -60 -75 -130 -90
-155 -14 -25 -35 -61 -46 -80 -10 -19 -45 -80 -76 -135 -32 -55 -70 -120 -84
-145 -14 -25 -66 -115 -115 -200 -49 -85 -99 -171 -109 -190 -11 -19 -34 -60
-51 -90 -17 -30 -33 -57 -36 -60 -3 -3 -14 -21 -23 -40 -10 -19 -24 -44 -30
-55 -27 -41 -76 -127 -135 -235 -8 -14 -23 -38 -33 -55 -11 -16 -26 -44 -34
-61 -8 -17 -20 -35 -27 -40 -8 -5 -115 -9 -239 -9 l-225 0 -13 -25 c-7 -14
-21 -38 -32 -55 -10 -16 -31 -52 -46 -80 -15 -27 -44 -78 -65 -112 -20 -35
-40 -72 -44 -83 -3 -11 -11 -20 -16 -20 -5 0 -9 -4 -9 -9 0 -4 -30 -61 -67
-125 -38 -64 -72 -124 -78 -134 -79 -140 -130 -228 -135 -232 -3 -3 -21 -34
-39 -70 -19 -36 -39 -72 -46 -80 -7 -8 -14 -19 -16 -25 -10 -25 -84 -150 -91
-153 -4 -2 -8 -12 -8 -22 0 -10 -4 -20 -8 -22 -4 -1 -19 -23 -33 -48 -14 -25
-35 -61 -46 -80 -22 -39 -162 -281 -184 -320 -8 -14 -16 -27 -19 -30 -3 -3
-13 -21 -24 -40 -50 -93 -80 -145 -85 -150 -4 -3 -12 -16 -18 -30 -7 -14 -26
-47 -42 -75 -16 -27 -41 -71 -55 -96 l-25 -47 47 -96 46 -96 1362 0 c1077 0
1364 3 1372 13 5 6 19 28 30 47 11 19 36 64 57 100 21 36 49 86 64 111 134
233 194 336 202 349 5 8 25 44 45 80 94 166 128 225 134 230 3 3 17 26 30 52
14 26 61 109 105 184 88 152 119 206 158 274 14 25 48 86 77 135 29 50 64 110
78 135 13 25 28 50 32 55 5 6 19 30 33 55 59 109 122 215 130 221 5 3 8 9 8
13 -1 3 23 49 54 100 30 52 55 96 55 99 0 3 14 28 31 56 l31 50 -41 71 c-22
40 -41 74 -41 78 0 3 -6 13 -14 21 -7 9 -27 41 -43 71 -17 30 -39 71 -50 90
-11 19 -80 139 -153 265 -73 127 -141 244 -150 260 -26 46 -159 278 -169 295
-5 8 -56 96 -113 194 -57 99 -115 200 -130 225 -15 25 -31 52 -34 59 -9 17
-166 290 -185 320 -13 20 -21 22 -114 22 -65 -1 -104 -5 -111 -13z m99 -452
c20 -35 37 -68 37 -74 0 -6 4 -11 9 -11 5 0 11 -8 14 -17 4 -10 17 -36 29 -58
13 -22 47 -81 76 -131 28 -50 52 -96 52 -103 0 -6 5 -11 10 -11 6 0 10 -7 10
-15 0 -8 5 -15 10 -15 6 0 10 -5 10 -11 0 -6 17 -41 39 -77 72 -125 199 -347
226 -397 15 -27 35 -63 45 -80 10 -16 29 -50 43 -75 13 -25 70 -125 126 -223
55 -97 101 -180 101 -182 0 -3 -97 -4 -216 -3 l-215 3 -17 30 c-9 17 -20 32
-24 33 -5 2 -8 7 -8 12 0 4 -40 79 -90 165 -49 86 -90 158 -90 160 0 3 -84
151 -110 195 -5 8 -31 53 -57 100 -26 47 -52 92 -58 101 -5 9 -22 38 -37 65
-52 96 -46 97 -116 -27 l-62 -112 45 -81 c25 -44 51 -92 59 -106 46 -77 156
-271 156 -275 0 -2 23 -41 50 -88 28 -47 50 -90 50 -96 0 -6 3 -11 8 -11 7 0
32 -47 32 -62 0 -4 -51 -8 -113 -8 l-114 0 -122 214 c-67 118 -131 233 -142
255 -11 23 -23 41 -27 41 -7 0 -16 -14 -89 -143 l-44 -77 20 -29 c12 -16 21
-36 21 -44 0 -9 4 -17 8 -19 7 -3 112 -185 112 -194 0 -2 -130 -4 -290 -4
-159 0 -290 2 -290 5 0 3 18 35 40 71 22 36 40 68 40 71 0 2 23 43 51 91 29
48 62 105 74 127 13 22 71 123 131 225 59 102 117 203 129 225 13 22 54 94 92
160 38 66 113 194 165 285 53 91 108 185 122 210 15 25 29 53 33 63 3 9 8 17
12 17 3 0 23 -29 44 -65z m857 -1734 c0 -5 -12 -30 -27 -56 -16 -26 -41 -70
-56 -99 -16 -28 -36 -62 -45 -76 -9 -14 -22 -34 -28 -45 -6 -11 -72 -127 -147
-259 -75 -131 -137 -242 -137 -246 0 -5 -3 -10 -8 -12 -10 -4 -102 -165 -102
-178 0 -5 -4 -10 -9 -10 -5 0 -11 -8 -15 -17 -3 -10 -13 -32 -23 -48 -32 -53
-70 -119 -91 -155 -11 -19 -44 -78 -74 -130 -31 -52 -64 -111 -74 -130 -10
-19 -25 -40 -31 -48 -7 -7 -13 -20 -13 -28 0 -8 -4 -14 -10 -14 -5 0 -10 -5
-10 -11 0 -13 -179 -322 -192 -330 -10 -7 -258 -9 -1580 -13 -461 -2 -838 0
-838 5 0 4 23 47 51 96 66 113 87 150 111 193 11 19 27 49 37 65 10 17 28 48
41 70 12 22 46 81 75 130 29 50 87 151 130 225 43 74 86 150 96 168 11 17 28
49 40 70 12 20 36 62 54 92 18 30 44 75 57 100 14 25 48 85 77 133 28 49 51
93 51 98 0 5 5 9 10 9 6 0 10 4 10 8 0 5 56 105 123 223 l124 214 229 5 c402
9 2194 9 2194 1z"/>
</g>
</svg>
