<?xml version="1.0" encoding="utf-8"?>
<!-- Generator: Adobe Illustrator 21.0.0, SVG Export Plug-In . SVG Version: 6.00 Build 0)  -->
<svg version="1.1" id="boek_scherpe_hoek" xmlns="http://www.w3.org/2000/svg" xmlns:xlink="http://www.w3.org/1999/xlink" x="0px"
	 y="0px" viewBox="0 0 438.6 379.7" style="enable-background:new 0 0 438.6 379.7;" xml:space="preserve">
<style type="text/css">
	.st0{fill:#FF5335;}
</style>
<g>
	<path class="st0" d="M356.7,118l-68-118h-136l-57,98l5,9h114l11,20h125L356.7,118z M116.6,95l45.4-77l10.9,18.9L145.1,84l13-0.1
		L179.3,48l5.9,10.3L170.1,84l12.9-0.1l8.7-14.5L206.4,95H116.6z M232.7,116l-61-105h110l61,105H232.7z"/>
	<path class="st0" d="M382.1,163.5l-10.3-0.2L315,262.2l-22.8-0.4L229.8,370l4.8,9.7l136.2,0l67.9-117.9L382.1,163.5z M374.3,183.1
		l44.1,77.7l-21.8,0l-27-47.6l-6.5,11.3l20.6,36.3l-11.9,0l-14.7-25.9l-6.4,11.2l8.2,14.7l-29.5,0L374.3,183.1z M364.7,368.1
		l-121.4,0.5l54.9-95.3l121.4-0.5L364.7,368.1z"/>
	<path class="st0" d="M141.5,252.4L79,144.2l-10.8-0.7L0,261.4l68,117.8l113.4,0.4l5.3-8.8l-57-98.7L141.5,252.4z M13,261.9
		l60.4-105.3l55,95.3L68,357.2L13,261.9z M168.3,362.9L79,362.2l10.9-18.9l54.7,0.5l-6.6-11.3l-41.7-0.4l5.9-10.3l29.8,0.3
		l-6.5-11.1l-16.9-0.3l14.8-25.6L168.3,362.9z"/>
</g>
</svg>
